<?xml version="1.0" encoding="UTF-8"?>
<svg xmlns="http://www.w3.org/2000/svg" xmlns:xlink="http://www.w3.org/1999/xlink" width="100pt" height="100pt" viewBox="0 0 100 100" version="1.1">
<g id="surface1">
<path style=" stroke:none;fill-rule:nonzero;fill:rgb(70.980392%,86.27451%,100%);fill-opacity:1;" d="M 27.875 57.210938 L 27.109375 58.296875 L 27.109375 92.300781 L 27.875 93.824219 C 30.894531 95.4375 34.085938 96.761719 37.417969 97.765625 L 38.105469 96.390625 L 38.105469 58.5 L 37.417969 57.210938 Z M 27.875 57.210938 "/>
<path style=" stroke:none;fill-rule:nonzero;fill:rgb(54.509804%,79.215686%,100%);fill-opacity:1;" d="M 37.417969 57.210938 L 32.925781 57.210938 L 32.925781 96.179688 C 34.390625 96.773438 35.890625 97.304688 37.417969 97.765625 L 38.105469 96.390625 L 38.105469 58.5 Z M 37.417969 57.210938 "/>
<path style=" stroke:none;fill-rule:nonzero;fill:rgb(70.980392%,86.27451%,100%);fill-opacity:1;" d="M 73.65625 57.210938 L 64.113281 57.210938 L 63.460938 58.363281 L 63.460938 97.300781 L 64.113281 98.742188 C 67.421875 98.003906 70.617188 96.957031 73.65625 95.628906 L 74.257812 94.714844 L 74.257812 58.566406 Z M 73.65625 57.210938 "/>
<path style=" stroke:none;fill-rule:nonzero;fill:rgb(54.509804%,79.215686%,100%);fill-opacity:1;" d="M 68.859375 57.210938 L 64.113281 57.210938 L 63.460938 58.363281 L 63.460938 97.300781 L 64.113281 98.742188 C 65.722656 98.382812 67.308594 97.949219 68.859375 97.445312 Z M 68.859375 57.210938 "/>
<path style=" stroke:none;fill-rule:nonzero;fill:rgb(100%,76.470588%,39.607843%);fill-opacity:1;" d="M 29.390625 0.136719 C 28.609375 0.523438 27.839844 0.925781 27.082031 1.347656 C 18.902344 9.203125 -6.867188 38.316406 18.476562 72.882812 L 18.691406 72.882812 L 18.691406 48.371094 L 17.734375 47.1875 C 16.890625 43.636719 16.441406 39.933594 16.441406 36.117188 C 16.441406 22.792969 21.933594 10.753906 30.78125 2.136719 C 31.789062 1.15625 30.648438 -0.484375 29.390625 0.136719 Z M 29.390625 0.136719 "/>
<path style=" stroke:none;fill-rule:nonzero;fill:rgb(100%,66.27451%,5.882353%);fill-opacity:1;" d="M 0 47.367188 C 0 63.21875 7 77.425781 18.078125 87.074219 L 18.691406 85.804688 L 18.691406 72.304688 C -10.464844 32.542969 29.390625 0.136719 29.390625 0.136719 C 11.976562 8.71875 0 26.644531 0 47.367188 Z M 0 47.367188 "/>
<path style=" stroke:none;fill-rule:nonzero;fill:rgb(100%,76.470588%,39.607843%);fill-opacity:1;" d="M 99.398438 69.023438 C 97.625 71.96875 92 80.261719 82.941406 83.984375 L 82.941406 89.449219 L 83.453125 90.03125 C 90.386719 85.015625 96.046875 78.351562 99.863281 70.609375 C 100.1875 69.953125 99.894531 69.324219 99.398438 69.023438 Z M 99.398438 69.023438 "/>
<path style=" stroke:none;fill-rule:nonzero;fill:rgb(100%,66.27451%,5.882353%);fill-opacity:1;" d="M 97.863281 69.21875 C 93.761719 73.429688 88.878906 76.882812 83.453125 79.34375 L 82.941406 80.5625 L 82.941406 84.128906 C 92.25 80.464844 97.933594 71.820312 99.535156 69.117188 C 99.078125 68.753906 98.378906 68.6875 97.863281 69.21875 Z M 97.863281 69.21875 "/>
<path style=" stroke:none;fill-rule:nonzero;fill:rgb(85.882353%,92.941176%,100%);fill-opacity:1;" d="M 27.875 60.773438 L 27.109375 60.109375 L 23.269531 60.109375 L 23.269531 90.371094 L 23.664062 91.3125 C 25.023438 92.210938 26.429688 93.050781 27.875 93.824219 Z M 27.875 60.773438 "/>
<path style=" stroke:none;fill-rule:nonzero;fill:rgb(70.980392%,86.27451%,100%);fill-opacity:1;" d="M 23.664062 60.109375 L 18.792969 60.109375 L 18.078125 60.773438 L 18.078125 87.074219 C 19.839844 88.609375 21.707031 90.023438 23.664062 91.3125 Z M 23.664062 60.109375 "/>
<path style=" stroke:none;fill-rule:nonzero;fill:rgb(85.882353%,92.941176%,100%);fill-opacity:1;" d="M 63.054688 60.773438 L 43.890625 60.773438 L 43.890625 99.273438 C 44.023438 99.292969 44.152344 99.316406 44.285156 99.339844 L 45.148438 98.742188 L 56.015625 99.039062 L 57.25 99.796875 C 59.582031 99.59375 61.875 99.238281 64.113281 98.742188 L 64.113281 61.726562 Z M 63.054688 60.773438 "/>
<path style=" stroke:none;fill-rule:nonzero;fill:rgb(70.980392%,86.27451%,100%);fill-opacity:1;" d="M 44.292969 60.773438 L 38.339844 60.773438 L 37.417969 61.726562 L 37.417969 97.765625 C 39.648438 98.4375 41.941406 98.964844 44.285156 99.339844 L 44.292969 99.332031 Z M 44.292969 60.773438 "/>
<path style=" stroke:none;fill-rule:nonzero;fill:rgb(85.882353%,92.941176%,100%);fill-opacity:1;" d="M 82.640625 60.109375 L 74.257812 60.109375 L 73.65625 60.773438 L 73.65625 95.628906 C 77.132812 94.113281 80.414062 92.230469 83.453125 90.03125 L 83.453125 60.773438 Z M 82.640625 60.109375 "/>
<path style=" stroke:none;fill-rule:nonzero;fill:rgb(70.980392%,86.27451%,100%);fill-opacity:1;" d="M 23.894531 52.058594 L 23.269531 52.765625 L 23.269531 60.773438 L 27.875 60.773438 L 27.875 52.058594 Z M 23.894531 52.058594 "/>
<path style=" stroke:none;fill-rule:nonzero;fill:rgb(54.509804%,79.215686%,100%);fill-opacity:1;" d="M 18.078125 60.773438 L 23.664062 60.773438 L 23.664062 52.238281 L 23.445312 52.058594 L 18.078125 52.058594 Z M 18.078125 60.773438 "/>
<path style=" stroke:none;fill-rule:nonzero;fill:rgb(70.980392%,86.27451%,100%);fill-opacity:1;" d="M 73.65625 52.058594 L 83.453125 52.058594 L 83.453125 60.773438 L 73.65625 60.773438 Z M 73.65625 52.058594 "/>
<path style=" stroke:none;fill-rule:nonzero;fill:rgb(70.980392%,86.27451%,100%);fill-opacity:1;" d="M 43.515625 46.929688 L 43.890625 47.308594 L 43.890625 61.726562 L 64.113281 61.726562 L 64.113281 46.929688 Z M 43.515625 46.929688 "/>
<path style=" stroke:none;fill-rule:nonzero;fill:rgb(54.509804%,79.215686%,100%);fill-opacity:1;" d="M 37.417969 61.726562 L 44.292969 61.726562 L 44.292969 47.308594 L 43.921875 46.929688 L 37.417969 46.929688 Z M 37.417969 61.726562 "/>
<path style=" stroke:none;fill-rule:nonzero;fill:rgb(85.882353%,92.941176%,100%);fill-opacity:1;" d="M 44.09375 57.425781 C 43.257812 57.425781 42.582031 56.75 42.582031 55.917969 L 42.582031 53.117188 C 42.582031 52.285156 43.257812 51.609375 44.09375 51.609375 C 44.925781 51.609375 45.601562 52.285156 45.601562 53.117188 L 45.601562 55.917969 C 45.601562 56.75 44.925781 57.425781 44.09375 57.425781 Z M 44.09375 57.425781 "/>
<path style=" stroke:none;fill-rule:nonzero;fill:rgb(85.882353%,92.941176%,100%);fill-opacity:1;" d="M 50.765625 57.425781 C 49.933594 57.425781 49.257812 56.75 49.257812 55.917969 L 49.257812 53.117188 C 49.257812 52.285156 49.933594 51.609375 50.765625 51.609375 C 51.597656 51.609375 52.273438 52.285156 52.273438 53.117188 L 52.273438 55.917969 C 52.273438 56.75 51.597656 57.425781 50.765625 57.425781 Z M 50.765625 57.425781 "/>
<path style=" stroke:none;fill-rule:nonzero;fill:rgb(85.882353%,92.941176%,100%);fill-opacity:1;" d="M 57.441406 57.425781 C 56.605469 57.425781 55.929688 56.75 55.929688 55.917969 L 55.929688 53.117188 C 55.929688 52.285156 56.605469 51.609375 57.441406 51.609375 C 58.273438 51.609375 58.949219 52.285156 58.949219 53.117188 L 58.949219 55.917969 C 58.949219 56.75 58.273438 57.425781 57.441406 57.425781 Z M 57.441406 57.425781 "/>
<path style=" stroke:none;fill-rule:nonzero;fill:rgb(57.647059%,51.764706%,57.647059%);fill-opacity:1;" d="M 54.007812 73.464844 L 52.960938 73.464844 L 49.144531 78.835938 L 49.144531 98.40625 L 49.917969 99.929688 C 50.816406 99.972656 51.722656 100 52.632812 100 C 54.1875 100 55.726562 99.929688 57.25 99.796875 L 57.25 80.871094 C 57.25 77.941406 56 75.308594 54.007812 73.464844 Z M 54.007812 73.464844 "/>
<path style=" stroke:none;fill-rule:nonzero;fill:rgb(48.235294%,42.352941%,47.45098%);fill-opacity:1;" d="M 49.917969 81.574219 C 49.917969 78.25 51.527344 75.304688 54.007812 73.464844 C 53.289062 72.796875 52.46875 72.234375 51.578125 71.800781 C 51.066406 71.550781 50.46875 71.550781 49.953125 71.800781 C 46.597656 73.4375 44.285156 76.882812 44.285156 80.867188 L 44.285156 99.339844 C 46.132812 99.632812 48.011719 99.832031 49.917969 99.929688 Z M 49.917969 81.574219 "/>
<path style=" stroke:none;fill-rule:nonzero;fill:rgb(100%,66.27451%,5.882353%);fill-opacity:1;" d="M 50.765625 29.558594 C 49.933594 29.558594 49.257812 28.882812 49.257812 28.050781 L 49.257812 21.726562 C 49.257812 20.894531 49.933594 20.21875 50.765625 20.21875 C 51.601562 20.21875 52.273438 20.894531 52.273438 21.726562 L 52.273438 28.050781 C 52.273438 28.882812 51.601562 29.558594 50.765625 29.558594 Z M 50.765625 29.558594 "/>
<path style=" stroke:none;fill-rule:nonzero;fill:rgb(100%,76.470588%,39.607843%);fill-opacity:1;" d="M 51.417969 23.074219 C 48.761719 23.074219 46.441406 21.105469 46.074219 18.402344 C 45.878906 16.976562 46.253906 15.558594 47.125 14.410156 C 47.628906 13.746094 48.574219 13.617188 49.238281 14.121094 C 49.902344 14.625 50.03125 15.574219 49.527344 16.238281 C 49.140625 16.742188 48.976562 17.367188 49.0625 17.996094 C 49.238281 19.296875 50.441406 20.210938 51.742188 20.035156 C 52.453125 19.9375 53.078125 19.53125 53.453125 18.917969 C 53.886719 18.207031 54.816406 17.984375 55.527344 18.417969 C 56.238281 18.851562 56.460938 19.78125 56.027344 20.492188 C 55.175781 21.882812 53.761719 22.804688 52.148438 23.027344 C 51.902344 23.058594 51.660156 23.074219 51.417969 23.074219 Z M 51.417969 23.074219 "/>
<path style=" stroke:none;fill-rule:nonzero;fill:rgb(57.647059%,51.764706%,57.647059%);fill-opacity:1;" d="M 65.472656 37.632812 C 64.148438 35.523438 61.933594 33.332031 58.230469 31.738281 C 56.472656 30.980469 55.128906 30.175781 54.101562 29.390625 L 53.164062 29.390625 L 44.007812 34.355469 L 40.890625 40.121094 L 40.890625 44.949219 L 44.09375 47.308594 L 64.113281 47.308594 C 66.832031 44.828125 67.429688 40.75 65.472656 37.632812 Z M 65.472656 37.632812 "/>
<path style=" stroke:none;fill-rule:nonzero;fill:rgb(48.235294%,42.352941%,47.45098%);fill-opacity:1;" d="M 42.734375 37.632812 C 44.054688 35.523438 46.273438 33.332031 49.976562 31.738281 C 51.734375 30.980469 53.074219 30.175781 54.101562 29.390625 C 53.308594 28.785156 52.707031 28.1875 52.246094 27.632812 C 52.027344 27.371094 51.714844 27.214844 51.375 27.214844 L 50.15625 27.214844 C 49.820312 27.214844 49.503906 27.371094 49.289062 27.632812 C 48.230469 28.90625 46.414062 30.398438 43.304688 31.738281 C 39.597656 33.332031 37.382812 35.523438 36.058594 37.632812 C 34.101562 40.75 34.703125 44.828125 37.417969 47.308594 L 44.09375 47.308594 C 41.375 44.828125 40.777344 40.75 42.734375 37.632812 Z M 42.734375 37.632812 "/>
<path style=" stroke:none;fill-rule:nonzero;fill:rgb(100%,76.470588%,39.607843%);fill-opacity:1;" d="M 78.554688 45.453125 C 77.722656 45.453125 77.046875 44.777344 77.046875 43.945312 L 77.046875 39.164062 C 77.046875 38.332031 77.722656 37.65625 78.554688 37.65625 C 79.386719 37.65625 80.0625 38.332031 80.0625 39.164062 L 80.0625 43.945312 C 80.0625 44.777344 79.386719 45.453125 78.554688 45.453125 Z M 78.554688 45.453125 "/>
<path style=" stroke:none;fill-rule:nonzero;fill:rgb(57.647059%,51.764706%,57.647059%);fill-opacity:1;" d="M 84.285156 47.964844 C 83.769531 46.988281 82.90625 45.976562 81.464844 45.238281 C 80.25 44.617188 79.542969 43.929688 79.132812 43.339844 C 79.046875 43.21875 78.925781 43.148438 78.792969 43.148438 L 78.316406 43.148438 C 78.1875 43.148438 78.0625 43.21875 77.980469 43.339844 C 77.566406 43.929688 76.859375 44.617188 75.648438 45.238281 C 74.203125 45.976562 73.339844 46.988281 72.824219 47.964844 C 72.0625 49.40625 72.597656 51.292969 73.65625 52.441406 L 83.453125 52.441406 C 84.511719 51.292969 85.046875 49.40625 84.285156 47.964844 Z M 84.285156 47.964844 "/>
<path style=" stroke:none;fill-rule:nonzero;fill:rgb(100%,76.470588%,39.607843%);fill-opacity:1;" d="M 22.976562 45.453125 C 22.144531 45.453125 21.46875 44.777344 21.46875 43.945312 L 21.46875 39.164062 C 21.46875 38.332031 22.144531 37.65625 22.976562 37.65625 C 23.8125 37.65625 24.488281 38.332031 24.488281 39.164062 L 24.488281 43.945312 C 24.488281 44.777344 23.8125 45.453125 22.976562 45.453125 Z M 22.976562 45.453125 "/>
<path style=" stroke:none;fill-rule:nonzero;fill:rgb(57.647059%,51.764706%,57.647059%);fill-opacity:1;" d="M 17.246094 47.964844 C 17.761719 46.988281 18.625 45.976562 20.070312 45.238281 C 21.28125 44.617188 21.988281 43.929688 22.402344 43.339844 C 22.484375 43.21875 22.609375 43.148438 22.738281 43.148438 L 23.214844 43.148438 C 23.347656 43.148438 23.46875 43.21875 23.554688 43.339844 C 23.964844 43.929688 24.671875 44.617188 25.886719 45.238281 C 27.328125 45.976562 28.191406 46.988281 28.707031 47.964844 C 29.46875 49.40625 28.933594 51.292969 27.875 52.441406 L 18.078125 52.441406 C 17.019531 51.292969 16.484375 49.40625 17.246094 47.964844 Z M 17.246094 47.964844 "/>
<path style=" stroke:none;fill-rule:nonzero;fill:rgb(48.235294%,42.352941%,47.45098%);fill-opacity:1;" d="M 78.40625 47.964844 C 78.921875 46.988281 79.785156 45.976562 81.230469 45.238281 C 81.269531 45.21875 81.308594 45.195312 81.347656 45.175781 C 80.207031 44.574219 79.53125 43.910156 79.132812 43.339844 C 79.046875 43.21875 78.925781 43.148438 78.792969 43.148438 L 78.316406 43.148438 C 78.1875 43.148438 78.0625 43.21875 77.980469 43.339844 C 77.566406 43.929688 76.859375 44.617188 75.648438 45.238281 C 74.203125 45.976562 73.339844 46.988281 72.824219 47.964844 C 72.0625 49.40625 72.597656 51.292969 73.65625 52.441406 L 79.242188 52.441406 C 78.183594 51.292969 77.644531 49.40625 78.40625 47.964844 Z M 78.40625 47.964844 "/>
<path style=" stroke:none;fill-rule:nonzero;fill:rgb(48.235294%,42.352941%,47.45098%);fill-opacity:1;" d="M 22.832031 47.964844 C 23.347656 46.988281 24.210938 45.976562 25.652344 45.238281 C 25.691406 45.21875 25.730469 45.195312 25.769531 45.175781 C 24.628906 44.574219 23.953125 43.910156 23.554688 43.339844 C 23.46875 43.21875 23.347656 43.148438 23.214844 43.148438 L 22.738281 43.148438 C 22.609375 43.148438 22.484375 43.21875 22.402344 43.339844 C 21.988281 43.929688 21.28125 44.617188 20.070312 45.238281 C 18.625 45.976562 17.761719 46.988281 17.246094 47.964844 C 16.484375 49.40625 17.019531 51.292969 18.078125 52.441406 L 23.664062 52.441406 C 22.605469 51.292969 22.066406 49.40625 22.832031 47.964844 Z M 22.832031 47.964844 "/>
</g>
</svg>
