<?xml version="1.0" standalone="no"?>
<!DOCTYPE svg PUBLIC "-//W3C//DTD SVG 20010904//EN"
 "http://www.w3.org/TR/2001/REC-SVG-20010904/DTD/svg10.dtd">
<svg version="1.0" xmlns="http://www.w3.org/2000/svg"
 width="320.000000pt" height="338.000000pt" viewBox="0 0 320.000000 338.000000"
 preserveAspectRatio="xMidYMid meet">

<g transform="translate(0.000000,338.000000) scale(0.100000,-0.100000)"
fill="#000000" stroke="none">
<path d="M619 3169 c-10 -10 -26 -15 -37 -13 -26 7 -112 -52 -112 -77 0 -12
-7 -19 -20 -19 -10 0 -24 -9 -30 -19 -13 -25 -13 -34 0 -26 19 12 30 -5 17
-25 -12 -21 -37 -27 -37 -10 0 6 5 10 12 10 6 0 8 3 4 7 -7 8 -36 -23 -36 -38
0 -3 11 -4 25 -1 15 2 25 0 25 -7 0 -6 -9 -11 -20 -11 -11 0 -20 -5 -20 -11 0
-6 -7 -17 -15 -25 -26 -26 -19 -45 15 -39 19 3 30 1 30 -6 0 -8 4 -8 15 1 13
10 17 7 30 -24 12 -29 20 -36 35 -31 10 3 22 0 26 -6 5 -9 2 -10 -9 -6 -9 3
-23 0 -31 -8 -11 -11 -16 -12 -19 -2 -3 6 -6 4 -6 -7 -1 -14 4 -17 24 -14 14
3 25 1 25 -4 0 -5 5 -6 10 -3 6 3 10 1 10 -5 0 -7 -6 -10 -14 -7 -8 3 -20 -2
-28 -11 -7 -8 -8 -13 -2 -9 13 7 47 -30 39 -44 -4 -5 -11 -7 -16 -4 -5 3 -6
-1 -3 -9 3 -9 11 -13 17 -9 6 3 7 1 3 -5 -4 -7 -1 -12 7 -12 8 0 17 -9 20 -20
6 -25 -1 -26 -20 -2 -8 9 -12 11 -8 5 10 -21 -19 -15 -39 8 -15 18 -20 19 -27
8 -7 -11 -9 -11 -9 -1 0 8 9 16 20 19 11 3 18 9 15 13 -7 11 -55 -12 -55 -26
0 -6 20 -19 45 -29 31 -13 41 -22 35 -30 -13 -15 -2 -25 24 -24 12 0 15 3 9 6
-7 2 -13 9 -13 14 0 5 9 4 19 -3 15 -9 17 -16 9 -25 -13 -16 13 -28 44 -20 12
4 28 1 36 -5 11 -10 9 -14 -10 -25 -18 -11 -18 -13 -3 -8 54 19 61 19 47 3
-16 -20 -65 -30 -74 -15 -5 9 -12 7 -24 -5 -16 -16 -19 -14 -56 33 -45 56 -65
68 -24 14 15 -19 34 -51 42 -70 20 -48 21 -141 2 -163 -9 -9 -18 -26 -22 -37
-10 -31 -78 -74 -143 -89 -32 -8 -50 -15 -40 -15 10 -1 17 -9 17 -21 0 -30 46
-38 71 -11 11 11 24 21 29 21 6 0 10 9 10 20 0 12 9 22 24 26 13 3 36 18 50
33 22 23 28 40 33 100 5 55 9 71 20 67 13 -6 38 3 83 29 15 9 19 15 10 15 -10
0 -6 8 13 25 29 28 35 50 15 59 -7 3 -4 5 7 5 36 -2 46 1 40 11 -3 6 1 7 9 4
9 -3 16 -2 16 3 0 5 16 9 35 9 22 0 40 7 48 18 12 16 15 13 35 -31 12 -26 28
-65 36 -86 17 -43 30 -49 139 -67 l78 -13 30 33 c24 25 27 35 17 41 -7 5 -8 9
-2 9 16 0 55 40 49 50 -4 6 2 7 11 3 12 -4 15 -3 10 5 -4 7 -2 12 3 12 6 0 11
9 11 20 0 11 6 20 13 20 19 0 50 36 43 49 -4 5 -21 14 -39 20 -25 8 -39 23
-55 56 -12 25 -22 48 -22 51 0 3 29 2 65 -1 87 -10 110 2 173 84 57 75 62 97
36 162 -13 30 -21 39 -35 36 -15 -4 -16 -2 -7 19 13 29 -11 71 -45 78 -169 33
-190 31 -225 -26 -12 -18 -34 -46 -51 -62 -37 -36 -40 -68 -11 -145 l21 -53
-21 -18 c-11 -9 -20 -23 -20 -29 0 -8 -16 -11 -45 -9 -44 3 -55 10 -35 23 6 3
9 16 9 28 -1 17 -2 18 -6 5 -2 -10 -10 -18 -17 -18 -18 0 -19 65 -1 80 12 10
15 9 15 -3 0 -8 -5 -18 -10 -20 -6 -3 -5 -4 2 -3 19 4 23 46 4 46 -8 0 -21 10
-27 23 -11 20 -11 21 4 9 13 -11 15 -10 10 7 -3 12 -9 19 -13 16 -5 -3 -11 -1
-15 4 -3 5 2 14 12 19 14 9 15 13 4 26 -7 9 -19 16 -25 16 -6 0 -3 -5 7 -11 9
-6 15 -14 12 -20 -10 -15 -45 9 -45 30 0 26 -27 34 -33 10 -3 -10 -11 -19 -17
-19 -10 0 -10 3 -1 14 9 11 9 16 0 21 -6 4 -15 1 -20 -6 -7 -11 -9 -11 -9 3 0
20 16 32 25 18 3 -5 18 -7 32 -4 16 4 29 2 35 -7 8 -12 9 -11 5 1 -2 8 -13 16
-25 18 -12 2 -22 7 -22 12 0 5 -7 7 -16 3 -12 -4 -15 0 -12 18 2 19 -2 24 -22
26 l-25 2 25 -8 c21 -7 22 -9 8 -15 -10 -5 -29 0 -47 10 -38 22 -40 37 -5 28
20 -5 25 -4 19 6 -5 8 -18 10 -39 6 -53 -11 -166 -13 -166 -4 0 5 12 9 28 7
15 -1 35 2 46 6 11 5 27 3 40 -5 19 -12 20 -11 8 2 -18 22 -110 20 -133 -3z
m-39 -25 c0 -13 -55 -54 -67 -50 -7 3 -10 -1 -6 -10 4 -10 0 -12 -11 -8 -23 9
-20 21 7 30 12 3 30 15 40 25 17 19 37 25 37 13z m170 -29 c0 -8 -4 -15 -10
-15 -5 0 -10 7 -10 15 0 8 5 15 10 15 6 0 10 -7 10 -15z m38 -8 c5 -24 -15
-21 -21 4 -3 13 -1 19 6 16 7 -2 13 -11 15 -20z m512 -2 c8 -10 9 -15 2 -15
-6 0 -9 -7 -6 -15 5 -11 -1 -15 -18 -15 -33 0 -39 8 -26 36 13 27 30 31 48 9z
m-480 -14 c0 -12 -20 -25 -27 -18 -7 7 6 27 18 27 5 0 9 -4 9 -9z m-232 -20
c3 -8 -1 -12 -9 -9 -7 2 -15 10 -17 17 -3 8 1 12 9 9 7 -2 15 -10 17 -17z
m262 -6 c0 -8 -4 -15 -10 -15 -5 0 -10 7 -10 15 0 8 5 15 10 15 6 0 10 -7 10
-15z m-290 -16 c0 -5 -4 -9 -10 -9 -5 0 -10 7 -10 16 0 8 5 12 10 9 6 -3 10
-10 10 -16z m225 11 c3 -5 1 -10 -4 -10 -6 0 -11 5 -11 10 0 6 2 10 4 10 3 0
8 -4 11 -10z m-257 -19 c3 -8 -1 -12 -9 -9 -7 2 -15 10 -17 17 -3 8 1 12 9 9
7 -2 15 -10 17 -17z m-78 -1 c0 -5 -5 -10 -11 -10 -5 0 -7 5 -4 10 3 6 8 10
11 10 2 0 4 -4 4 -10z m980 -16 c0 -8 -4 -12 -10 -9 -5 3 -10 10 -10 16 0 5 5
9 10 9 6 0 10 -7 10 -16z m-948 -16 c-7 -7 -12 -8 -12 -2 0 14 12 26 19 19 2
-3 -1 -11 -7 -17z m873 6 c17 -13 18 -16 5 -24 -21 -13 -26 -12 -41 7 -12 14
-12 16 0 8 11 -6 13 -4 8 8 -8 21 2 21 28 1z m-433 -16 c-9 -9 -15 -9 -24 0
-9 9 -7 12 12 12 19 0 21 -3 12 -12z m316 -13 c-3 -3 -9 2 -12 12 -6 14 -5 15
5 6 7 -7 10 -15 7 -18z m-758 1 c0 -3 -4 -8 -10 -11 -5 -3 -10 -1 -10 4 0 6 5
11 10 11 6 0 10 -2 10 -4z m456 -21 c-3 -9 -11 -13 -16 -10 -8 5 -7 11 1 21
14 18 24 11 15 -11z m479 -5 c8 -13 -5 -13 -25 0 -13 8 -13 10 2 10 9 0 20 -4
23 -10z m-945 -12 c0 -24 -18 -41 -35 -35 -9 4 -13 12 -10 18 4 6 13 8 21 5 8
-3 11 0 7 10 -3 7 0 14 6 14 6 0 11 -6 11 -12z m500 2 c0 -5 -7 -10 -16 -10
-8 0 -12 5 -9 10 3 6 10 10 16 10 5 0 9 -4 9 -10z m530 -10 c0 -5 -11 -10 -25
-10 -14 0 -25 5 -25 10 0 6 11 10 25 10 14 0 25 -4 25 -10z m-1068 -46 c16 -5
17 -9 8 -17 -9 -9 -14 -9 -17 0 -2 6 -15 9 -29 7 -25 -5 -25 -5 -7 20 12 16
19 20 21 11 2 -8 12 -17 24 -21z m548 21 c0 -8 -7 -15 -15 -15 -26 0 -18 20
13 29 1 1 2 -6 2 -14z m319 -16 c-11 -7 -11 -9 -1 -9 7 0 10 -5 6 -11 -4 -8
-9 -7 -14 2 -10 16 -1 41 12 33 6 -4 5 -10 -3 -15z m-94 -9 c-3 -5 -12 -10
-18 -10 -7 0 -6 4 3 10 19 12 23 12 15 0z m-235 -10 c0 -5 -7 -10 -16 -10 -8
0 -12 5 -9 10 3 6 10 10 16 10 5 0 9 -4 9 -10z m-490 -15 c0 -8 -2 -15 -4 -15
-2 0 -6 7 -10 15 -3 8 -1 15 4 15 6 0 10 -7 10 -15z m779 -32 c-8 -9 -16 -10
-22 -4 -13 13 0 31 19 24 11 -4 12 -8 3 -20z m-294 7 c-3 -5 -11 -10 -16 -10
-6 0 -7 5 -4 10 3 6 11 10 16 10 6 0 7 -4 4 -10z m15 -30 c0 -5 -7 -10 -16
-10 -8 0 -12 5 -9 10 3 6 10 10 16 10 5 0 9 -4 9 -10z m280 -36 c0 -1 -9 0
-20 3 -11 3 -20 12 -20 19 0 11 5 10 20 -3 11 -10 20 -18 20 -19z m-85 6 c10
-11 16 -20 13 -20 -3 0 -13 9 -23 20 -10 11 -16 20 -13 20 3 0 13 -9 23 -20z
m135 10 c0 -5 -5 -10 -11 -10 -5 0 -7 5 -4 10 3 6 8 10 11 10 2 0 4 -4 4 -10z
m53 -29 c-3 -12 -11 -17 -19 -14 -23 9 -14 33 12 33 7 0 10 -8 7 -19z m-709
-17 c3 -8 2 -12 -4 -9 -6 3 -10 10 -10 16 0 14 7 11 14 -7z m176 6 c0 -5 -5
-10 -11 -10 -5 0 -7 5 -4 10 3 6 8 10 11 10 2 0 4 -4 4 -10z m322 -32 c9 0 20
-8 23 -18 3 -11 11 -19 17 -17 18 4 19 -18 2 -38 -12 -16 -14 -16 -10 -3 2 9
-2 19 -10 22 -9 4 -12 2 -8 -5 4 -8 -1 -9 -17 -3 -13 4 -39 7 -56 6 -25 -2
-33 2 -34 16 0 10 -3 12 -6 5 -7 -19 -20 -16 -26 7 -3 13 0 20 9 20 11 0 12 4
4 19 -10 20 -9 20 42 4 29 -9 61 -16 70 -15z m-115 -95 c-4 -3 -2 -12 4 -20 8
-9 8 -13 1 -13 -6 0 -14 5 -17 10 -6 10 2 30 12 30 4 0 3 -3 0 -7z m-417 -39
c-6 -6 -7 -14 -3 -17 3 -4 -1 -7 -9 -7 -22 0 -43 27 -26 33 24 9 48 4 38 -9z
m242 -4 c-10 -12 -18 -16 -21 -9 -2 6 3 15 10 20 24 15 29 10 11 -11z m378 -6
c0 -8 -11 -14 -26 -14 -21 0 -24 3 -15 13 6 8 8 16 5 20 -3 3 3 3 15 0 12 -3
21 -12 21 -19z m-271 -15 c-9 -17 -13 -19 -20 -8 -5 8 -3 16 4 21 22 14 28 8
16 -13z m-269 -18 c0 -14 -26 -20 -41 -9 -11 8 -11 9 3 4 10 -3 20 -1 23 4 8
12 15 13 15 1z m35 -1 c3 -5 2 -10 -4 -10 -5 0 -13 5 -16 10 -3 6 -2 10 4 10
5 0 13 -4 16 -10z m345 -26 c0 -8 -4 -14 -10 -14 -5 0 -10 9 -10 21 0 11 5 17
10 14 6 -3 10 -13 10 -21z m100 -7 c0 -21 -12 -28 -27 -16 -19 16 -16 29 7 29
11 0 20 -6 20 -13z m-110 -17 c20 13 60 13 60 0 0 -5 -7 -7 -15 -4 -13 5 -13
1 2 -24 10 -17 20 -26 24 -21 3 6 11 4 18 -5 13 -16 7 -36 -11 -36 -7 0 -6 5
1 14 10 12 8 13 -8 9 -12 -3 -21 -12 -21 -20 0 -11 -6 -8 -20 8 -17 21 -19 21
-13 4 6 -17 1 -16 -33 9 -33 25 -36 26 -17 5 l22 -24 -22 0 c-18 0 -22 6 -22
29 0 16 6 31 13 34 6 2 12 11 12 20 0 12 3 13 8 5 5 -8 13 -9 22 -3z m-414
-35 c-11 -8 -25 -15 -30 -15 -6 0 -2 7 8 15 11 8 25 15 30 15 6 0 2 -7 -8 -15z
m-60 -30 c-21 -16 -32 -13 -21 4 3 6 14 11 23 11 15 -1 15 -2 -2 -15z"/>
<path d="M590 2579 c0 -5 5 -7 10 -4 6 3 10 8 10 11 0 2 -4 4 -10 4 -5 0 -10
-5 -10 -11z"/>
<path d="M1075 2460 c-3 -6 1 -7 9 -4 18 7 21 14 7 14 -6 0 -13 -4 -16 -10z"/>
<path d="M1146 3085 c-9 -9 -16 -22 -16 -28 0 -6 10 -2 22 11 12 12 19 24 16
27 -3 3 -13 -1 -22 -10z"/>
<path d="M1037 3063 c-4 -3 -7 -19 -7 -35 0 -26 2 -28 20 -18 23 12 28 60 7
60 -8 0 -17 -3 -20 -7z"/>
<path d="M1647 3023 c-4 -3 -7 -17 -7 -30 0 -27 34 -33 44 -7 9 23 8 26 -6 18
-8 -5 -9 -2 -5 9 6 17 -13 24 -26 10z"/>
<path d="M1651 2917 c-6 -6 -11 -19 -11 -30 0 -27 44 -19 48 9 3 25 -20 38
-37 21z"/>
<path d="M1724 2915 c-8 -21 3 -45 20 -45 20 0 29 16 21 40 -7 23 -33 27 -41
5z"/>
<path d="M1565 2870 c-4 -6 -3 -25 1 -43 4 -17 7 -39 5 -48 -3 -23 25 -31 40
-13 10 12 10 20 1 35 -7 11 -10 24 -7 29 7 12 -12 50 -25 50 -5 0 -12 -5 -15
-10z m45 -80 c0 -5 -2 -10 -4 -10 -3 0 -8 5 -11 10 -3 6 -1 10 4 10 6 0 11 -4
11 -10z"/>
<path d="M370 2820 c0 -17 5 -27 15 -27 8 0 15 4 15 9 0 5 5 6 10 3 16 -10 2
-25 -23 -25 -19 -1 -20 -2 -6 -13 9 -7 14 -18 12 -24 -3 -7 0 -13 6 -13 6 0
11 -5 11 -11 0 -5 -4 -7 -10 -4 -14 9 -13 -8 2 -23 13 -13 48 -16 48 -4 0 4
-5 13 -12 20 -7 7 -8 12 -3 12 5 0 0 7 -11 15 -19 14 -18 14 4 15 14 0 22 6
22 18 0 9 -4 13 -8 7 -12 -16 -32 -16 -26 0 4 8 14 15 23 16 10 0 7 4 -9 11
-14 6 -31 10 -37 9 -18 -3 -16 9 3 23 13 10 13 12 -5 12 -16 0 -21 -7 -21 -26z
m65 -120 c3 -5 -1 -10 -9 -10 -9 0 -16 5 -16 10 0 6 4 10 9 10 6 0 13 -4 16
-10z"/>
<path d="M1654 2756 c-18 -14 -18 -16 -3 -31 13 -14 21 -15 38 -6 25 14 28 36
5 45 -20 8 -17 8 -40 -8z"/>
<path d="M1484 2676 c-9 -23 0 -51 16 -51 10 0 15 10 15 29 0 32 -21 47 -31
22z"/>
<path d="M496 2635 c4 -8 10 -12 15 -9 11 6 2 24 -11 24 -5 0 -7 -7 -4 -15z"/>
<path d="M270 2549 c-78 -33 -128 -113 -117 -185 8 -48 49 -110 90 -134 32
-20 134 -29 123 -11 -8 12 22 23 37 14 7 -3 9 -3 5 2 -8 8 29 40 46 40 17 0
49 78 49 119 0 54 -25 100 -72 131 -43 29 -122 41 -161 24z"/>
<path d="M827 2473 c-13 -12 -7 -51 9 -57 21 -8 34 1 34 23 0 28 -28 50 -43
34z"/>
<path d="M836 2375 c-9 -23 11 -56 30 -48 20 7 14 57 -7 61 -9 2 -19 -4 -23
-13z"/>
<path d="M713 2353 c-7 -2 -13 -18 -13 -34 0 -24 -6 -33 -32 -44 -18 -7 -45
-26 -59 -42 -50 -53 -61 -79 -60 -143 0 -107 67 -186 167 -198 37 -4 42 -7 32
-19 -9 -11 -8 -18 5 -31 11 -10 17 -12 17 -4 0 7 5 11 11 10 6 -2 17 16 24 39
12 39 11 42 -9 47 -11 3 -29 6 -39 6 -10 0 -47 14 -82 30 -35 17 -68 30 -73
30 -20 0 -42 39 -40 69 1 17 5 31 9 31 3 0 12 21 19 46 7 26 24 59 38 75 30
37 63 37 162 0 64 -24 78 -33 98 -67 17 -29 21 -48 17 -74 -3 -19 -7 -47 -8
-62 -1 -15 -9 -33 -17 -40 -12 -11 -12 -11 -1 5 8 9 11 20 8 23 -3 3 -10 -4
-17 -15 -6 -12 -8 -21 -4 -21 4 0 -2 -10 -13 -22 -36 -40 -35 -49 2 -27 41 24
89 93 81 115 -3 8 -1 14 4 14 14 0 12 67 -2 93 -7 12 -13 31 -15 42 -7 43 -99
105 -155 105 -23 0 -26 4 -24 31 1 32 -8 42 -31 32z m192 -163 c10 -11 13 -20
7 -20 -6 0 -16 9 -22 20 -6 11 -9 20 -7 20 2 0 12 -9 22 -20z m22 -117 c-3
-10 -5 -4 -5 12 0 17 2 24 5 18 2 -7 2 -21 0 -30z m-130 -159 c-3 -3 -12 -4
-19 -1 -8 3 -5 6 6 6 11 1 17 -2 13 -5z"/>
<path d="M902 2308 c4 -31 53 -34 53 -3 0 15 -8 21 -28 23 -25 3 -28 0 -25
-20z"/>
<path d="M2070 2301 c-5 -11 -48 -45 -94 -75 -86 -57 -122 -93 -132 -131 -4
-16 -20 -26 -57 -38 -111 -35 -187 -111 -187 -187 0 -13 -14 -37 -33 -55 -83
-81 -84 -308 -2 -389 21 -20 34 -45 38 -70 12 -77 81 -142 184 -172 39 -11 52
-20 57 -39 10 -39 52 -80 130 -129 41 -26 84 -59 94 -74 l20 -26 29 31 c16 17
56 47 88 68 79 49 123 92 130 125 5 22 15 29 65 44 32 10 76 31 98 47 43 32
82 99 82 141 0 16 9 32 24 41 13 9 34 38 47 64 20 40 24 63 24 143 -1 108 -23
175 -69 205 -17 11 -26 26 -26 43 0 42 -40 112 -81 142 -22 15 -66 36 -99 46
-45 13 -60 22 -60 36 0 27 -65 93 -125 127 -30 17 -70 46 -89 66 -41 41 -42
41 -56 16z m51 -56 c17 -19 57 -51 89 -70 61 -37 104 -80 115 -115 3 -11 18
-23 33 -26 43 -11 115 -50 139 -76 24 -25 53 -88 53 -114 0 -9 13 -28 29 -43
79 -74 79 -281 1 -360 -17 -16 -30 -37 -30 -46 0 -25 -29 -88 -53 -113 -24
-26 -96 -65 -139 -76 -15 -3 -30 -15 -33 -26 -11 -35 -54 -78 -115 -115 -32
-19 -72 -51 -89 -71 l-31 -35 -31 35 c-17 20 -55 49 -84 66 -55 31 -109 84
-119 118 -4 11 -26 25 -59 35 -91 29 -167 111 -167 179 0 13 -9 29 -20 36 -11
6 -30 31 -42 54 -19 36 -23 58 -23 138 0 80 4 102 23 138 12 23 31 48 42 54
11 7 20 23 20 36 0 68 76 150 166 179 40 12 56 23 64 43 14 35 62 80 121 113
26 15 59 42 75 61 16 19 30 35 32 35 1 1 16 -15 33 -34z"/>
<path d="M2040 1900 c-60 -60 27 -166 95 -117 16 13 15 14 -14 9 -62 -9 -105
65 -64 110 22 24 8 23 -17 -2z"/>
<path d="M2095 1860 c-3 -5 -1 -10 4 -10 6 0 11 5 11 10 0 6 -2 10 -4 10 -3 0
-8 -4 -11 -10z"/>
<path d="M1803 1620 c0 -25 2 -35 4 -22 2 12 2 32 0 45 -2 12 -4 2 -4 -23z"/>
<path d="M1960 1656 c0 -11 30 -66 36 -66 2 0 -3 15 -12 33 -19 36 -24 44 -24
33z"/>
<path d="M2028 1653 c-2 -5 -1 -24 3 -43 l6 -35 2 43 c1 39 -3 52 -11 35z"/>
<path d="M2092 1655 c0 -5 6 -26 13 -45 7 -19 14 -28 14 -20 0 8 -6 29 -14 45
-7 17 -13 26 -13 20z"/>
<path d="M2153 1620 c0 -25 2 -35 4 -22 2 12 2 32 0 45 -2 12 -4 2 -4 -23z"/>
<path d="M2201 1643 c12 -20 12 -26 0 -45 -13 -21 -13 -22 2 -9 10 7 17 21 17
31 0 10 -7 24 -17 31 -15 13 -15 12 -2 -8z"/>
<path d="M2263 1647 c4 -11 10 -30 13 -43 3 -13 10 -24 15 -24 4 0 1 17 -8 38
-16 38 -31 61 -20 29z"/>
<path d="M2327 1650 c21 -34 53 -72 53 -63 0 5 -14 24 -31 43 -17 19 -27 28
-22 20z"/>
<path d="M1911 1620 c0 -8 4 -22 9 -30 12 -18 12 -2 0 25 -6 13 -9 15 -9 5z"/>
<path d="M1837 1599 c4 -13 8 -18 11 -10 2 7 -1 18 -6 23 -8 8 -9 4 -5 -13z"/>
<path d="M1010 2266 c0 -7 7 -19 15 -26 19 -16 41 1 32 24 -8 20 -47 21 -47 2z"/>
<path d="M470 2081 c0 -5 -9 -11 -21 -14 -16 -4 -20 -12 -17 -34 4 -35 37 -45
45 -14 3 12 13 21 24 21 21 0 25 20 7 38 -14 14 -38 16 -38 3z"/>
<path d="M214 2065 c-9 -23 3 -45 25 -45 29 0 36 18 15 41 -21 23 -33 24 -40
4z"/>
<path d="M311 1960 c-35 -11 -72 -27 -82 -36 -31 -28 -59 -97 -59 -145 1 -84
63 -176 114 -167 14 3 23 1 20 -4 -7 -11 51 -35 103 -43 36 -6 41 -4 88 47 28
29 39 43 25 32 -14 -12 -32 -24 -40 -28 -11 -6 -11 -4 1 6 9 7 29 31 44 53 15
22 25 31 21 20 -6 -20 -6 -20 9 -1 20 27 20 145 0 172 -15 19 -15 19 -9 -1 5
-18 4 -18 -6 -2 -6 9 -9 21 -6 26 3 5 -4 20 -15 32 l-21 24 17 -30 18 -30 -26
24 c-15 13 -24 27 -22 31 6 10 -62 40 -88 39 -12 0 -51 -9 -86 -19z m49 -17
c-8 -3 -22 -12 -31 -20 -9 -8 -24 -11 -34 -7 -17 7 -17 8 1 21 10 7 32 13 48
12 17 0 24 -3 16 -6z m136 -55 c16 -19 16 -20 1 -9 -15 12 -17 12 -11 -3 4
-11 1 -16 -14 -16 -11 0 -22 -7 -25 -14 -4 -10 -1 -13 9 -9 8 3 14 -1 14 -9 0
-8 -6 -15 -13 -15 -7 0 -24 -3 -39 -6 -30 -8 -49 10 -27 24 8 5 10 9 4 9 -6 0
-6 3 1 8 5 4 18 18 27 32 9 13 17 19 17 12 0 -6 7 -12 15 -12 8 0 14 3 14 8
-5 27 3 27 27 0z m-126 -88 c0 -5 -4 -10 -10 -10 -5 0 -10 5 -10 10 0 6 5 10
10 10 6 0 10 -4 10 -10z m-5 -50 c-3 -5 -11 -10 -16 -10 -6 0 -7 5 -4 10 3 6
11 10 16 10 6 0 7 -4 4 -10z m31 -15 c-3 -8 -1 -15 4 -15 6 0 10 4 10 9 0 5 8
8 18 6 9 -2 19 -4 22 -4 3 -1 -2 -6 -10 -11 -13 -9 -13 -10 1 -10 8 0 20 5 27
12 20 20 24 1 5 -29 -19 -29 -43 -52 -55 -53 -13 0 -9 28 5 33 6 2 9 8 5 12
-4 4 -14 2 -22 -4 -13 -11 -15 -9 -11 9 2 12 -2 23 -10 26 -15 6 -9 34 7 34 6
0 8 -7 4 -15z m-103 -63 c-8 -22 -9 -22 -25 -2 -10 11 -13 22 -8 25 6 4 10 1
10 -4 0 -6 5 -11 11 -11 6 0 8 7 4 18 -4 12 -3 14 5 6 6 -6 7 -19 3 -32z m217
24 c0 -2 -8 -10 -17 -17 -16 -13 -17 -12 -4 4 13 16 21 21 21 13z m-188 -28
c-7 -7 -12 -8 -12 -2 0 14 12 26 19 19 2 -3 -1 -11 -7 -17z m-37 -38 c12 -19
-12 -10 -31 11 -19 22 -19 22 3 10 12 -6 25 -16 28 -21z"/>
<path d="M607 1863 c-12 -11 -8 -51 6 -56 32 -11 51 25 25 51 -14 14 -22 15
-31 5z"/>
<path d="M660 1800 c-8 -5 -11 -12 -7 -16 4 -4 -6 -13 -23 -20 -30 -13 -39
-37 -19 -49 16 -10 59 4 59 19 0 8 9 16 20 19 11 3 20 12 20 21 0 20 -32 37
-50 26z"/>
<path d="M692 1691 c-18 -11 -11 -56 8 -56 17 0 27 42 13 56 -4 4 -14 4 -21 0z"/>
<path d="M597 1663 c-2 -10 3 -26 11 -36 14 -15 13 -19 -4 -32 -18 -13 -18
-15 -2 -31 20 -20 40 -10 37 19 -2 12 3 32 10 45 10 18 10 26 0 38 -16 20 -47
18 -52 -3z"/>
<path d="M275 1560 c-5 -8 -4 -15 3 -18 6 -2 9 -9 6 -17 -3 -8 -12 -11 -20 -8
-8 3 -14 -1 -14 -8 0 -11 -2 -11 -10 1 -7 12 -11 10 -18 -10 -9 -23 -7 -26 32
-38 22 -7 65 -15 94 -19 60 -7 70 7 22 32 -16 9 -30 19 -30 23 0 4 -13 23 -28
42 -22 26 -31 30 -37 20z m43 -49 c3 -8 -1 -12 -9 -9 -7 2 -15 10 -17 17 -3 8
1 12 9 9 7 -2 15 -10 17 -17z"/>
<path d="M355 1525 c11 -8 28 -22 38 -30 20 -17 37 -12 37 10 0 8 -12 17 -27
21 -16 3 -37 8 -48 10 l-20 5 20 -16z"/>
<path d="M770 1515 c-10 -12 -10 -18 0 -30 7 -8 18 -15 25 -15 20 0 26 28 9
45 -19 18 -19 18 -34 0z"/>
<path d="M609 1477 c7 -9 20 -17 28 -17 10 0 13 -6 9 -16 -3 -9 -6 -22 -6 -29
0 -7 -8 -16 -17 -18 -10 -3 2 -5 26 -6 24 0 42 2 39 5 -4 3 -2 19 2 35 8 27 7
29 -33 40 -23 6 -46 14 -52 17 -5 3 -4 -2 4 -11z m58 -69 c-3 -8 -6 -5 -6 6
-1 11 2 17 5 13 3 -3 4 -12 1 -19z"/>
<path d="M530 1458 c0 -7 -3 -23 -6 -35 -6 -20 -3 -23 24 -23 40 0 60 31 36
54 -18 19 -54 21 -54 4z"/>
<path d="M770 1436 c-6 -8 -18 -12 -26 -9 -8 3 -14 -1 -14 -9 0 -10 12 -15 37
-16 40 -2 58 14 41 35 -14 17 -23 16 -38 -1z"/>
<path d="M245 1399 c-10 -15 0 -21 27 -17 l23 3 -22 13 c-15 8 -24 9 -28 1z"/>
<path d="M326 1375 c-15 -8 -36 -15 -45 -16 -9 0 15 -10 52 -21 38 -11 71 -17
74 -14 3 2 2 18 -2 35 -8 36 -32 40 -79 16z"/>
<path d="M804 1356 c-9 -24 4 -48 23 -44 12 2 18 12 18 28 0 29 -32 41 -41 16z"/>
<path d="M645 1350 c-4 -6 5 -10 20 -10 15 0 24 4 20 10 -3 6 -12 10 -20 10
-8 0 -17 -4 -20 -10z"/>
<path d="M421 1308 c-1 -39 -4 -48 -18 -48 -45 -1 -159 -75 -182 -119 -8 -14
0 -16 74 -14 l84 1 36 41 c44 48 74 52 158 21 76 -29 87 -43 82 -115 -3 -54
-7 -63 -40 -93 -27 -25 -34 -37 -25 -46 10 -13 8 -30 -11 -71 -33 -75 -67
-160 -64 -163 9 -9 100 42 130 73 37 37 75 104 75 130 0 23 15 18 30 -10 12
-23 12 -27 -8 -41 -41 -29 -15 -67 40 -58 32 5 32 4 -7 -11 -22 -9 -49 -19
-60 -22 -24 -7 -92 -70 -107 -98 -5 -11 2 -6 15 10 23 26 22 22 -9 -39 -19
-37 -34 -79 -34 -92 0 -13 -5 -24 -11 -24 -18 0 -2 -107 25 -165 31 -66 87
-122 155 -153 83 -38 194 -37 273 1 71 35 137 107 162 176 25 71 19 178 -14
241 -13 25 -24 48 -25 51 0 10 -86 79 -118 95 -21 11 -32 13 -40 5 -14 -14
-40 -14 -32 -1 4 6 12 7 18 4 9 -5 9 -4 1 5 -7 7 -45 16 -85 21 -41 4 -57 8
-37 9 20 0 40 6 43 11 3 6 16 10 29 10 23 0 75 48 95 87 31 60 3 149 -62 197
-29 22 -101 29 -142 14 -15 -6 -23 -2 -31 16 -9 20 -8 28 10 45 19 19 19 22 4
37 -21 21 -40 9 -37 -24 2 -15 -5 -39 -15 -54 -14 -21 -15 -31 -6 -48 11 -21
5 -60 -9 -60 -4 0 -18 22 -31 50 -13 27 -35 61 -50 75 -20 19 -26 33 -22 51 3
15 -2 32 -13 44 -18 19 -17 20 11 21 16 1 33 1 38 0 4 -1 16 1 26 4 16 5 20
12 29 50 1 5 -2 11 -8 13 -6 2 -11 -6 -11 -17 0 -24 1 -24 -71 -11 -30 5 -66
11 -81 12 -16 1 -28 7 -28 13 -1 5 -11 -3 -25 -19 -20 -25 -26 -28 -39 -17 -9
8 -16 10 -17 5 -1 -5 -5 2 -9 16 -7 20 -8 16 -9 -22z m-66 -109 c11 -17 2 -18
-19 -3 -17 12 -17 14 -4 14 9 0 20 -5 23 -11z m614 -124 c23 -22 12 -30 -16
-12 -9 6 -13 1 -13 -13 0 -16 -4 -20 -16 -16 -9 3 -22 6 -30 6 -9 0 -12 5 -9
10 3 6 1 10 -4 10 -19 0 -12 -22 9 -27 25 -7 26 -19 1 -26 -14 -3 -20 2 -24
19 -15 80 42 107 102 49z m-280 -21 c-14 -18 -24 -11 -15 11 3 9 11 13 16 10
8 -5 7 -11 -1 -21z m197 -89 c-24 -24 -20 -38 9 -31 25 6 25 6 6 -13 -24 -24
-57 -35 -66 -21 -3 5 -1 10 4 10 6 0 11 4 11 10 0 5 -7 6 -17 3 -11 -4 -14 -3
-9 5 4 7 14 12 22 12 9 0 14 6 12 12 -3 7 5 18 16 24 27 14 33 9 12 -11z
m-156 7 c0 -5 -7 -9 -15 -9 -8 0 -15 4 -15 9 0 4 7 8 15 8 8 0 15 -4 15 -8z
m266 -78 c-15 -21 -43 -31 -71 -24 -5 2 -18 3 -27 4 -21 0 -7 31 22 46 25 13
33 13 24 -2 -5 -10 -4 -10 6 -1 7 6 19 9 26 6 9 -3 14 2 14 13 1 18 1 18 11 1
8 -14 7 -24 -5 -43z m-296 22 c9 -12 8 -15 -8 -13 -12 0 -18 6 -15 14 6 16 8
16 23 -1z m-40 -91 c0 -17 -2 -18 -24 -9 -23 9 -20 24 4 24 11 0 20 -7 20 -15z
m-80 -49 c0 -11 -19 -15 -25 -6 -3 5 1 10 9 10 9 0 16 -2 16 -4z m290 -22 c0
-8 -5 -12 -10 -9 -6 4 -8 11 -5 16 9 14 15 11 15 -7z m100 -8 c14 -1 25 -7 24
-13 -1 -7 -2 -20 -2 -28 -2 -18 -36 -37 -54 -30 -18 7 -38 53 -31 71 3 10 12
13 22 8 9 -4 27 -7 41 -8z m77 -26 c2 -19 -14 -37 -23 -27 -5 5 13 47 19 47 2
0 3 -9 4 -20z m-409 -121 c-3 -8 -7 -3 -11 10 -4 17 -3 21 5 13 5 -5 8 -16 6
-23z m502 -15 c0 -8 -4 -14 -10 -14 -5 0 -10 9 -10 21 0 11 5 17 10 14 6 -3
10 -13 10 -21z m-533 -26 c-3 -8 -6 -5 -6 6 -1 11 2 17 5 13 3 -3 4 -12 1 -19z
m231 -25 c-8 -10 -21 -27 -27 -38 -11 -18 -11 -18 -5 5 8 30 23 50 37 50 5 0
3 -8 -5 -17z m315 2 c8 -18 -11 -31 -25 -17 -11 11 -3 32 12 32 4 0 10 -7 13
-15z m-519 -1 c18 -7 12 -24 -10 -24 -8 0 -14 7 -14 15 0 17 2 18 24 9z m447
-57 c-10 -9 -11 -8 -5 6 3 10 9 15 12 12 3 -3 0 -11 -7 -18z m48 -4 c-7 -10
-14 -20 -16 -22 -1 -1 -7 0 -13 4 -14 9 6 35 27 35 13 0 13 -3 2 -17z m-489 3
c0 -3 -4 -8 -10 -11 -5 -3 -10 -1 -10 4 0 6 5 11 10 11 6 0 10 -2 10 -4z m530
-12 c0 -8 -4 -12 -10 -9 -5 3 -10 1 -10 -4 0 -6 -5 -11 -10 -11 -6 0 -5 8 2
20 15 24 28 26 28 4z m-115 -43 c0 -8 -6 -15 -13 -17 -7 -1 -8 0 -2 3 16 8 12
26 -5 19 -8 -3 -15 -1 -15 5 0 6 8 9 18 7 9 -2 17 -10 17 -17z m45 -1 c0 -5
-2 -10 -4 -10 -3 0 -8 5 -11 10 -3 6 -1 10 4 10 6 0 11 -4 11 -10z m-21 -31
c-22 -13 -31 -11 -17 5 7 8 17 12 22 9 4 -3 2 -9 -5 -14z m66 11 c-3 -5 -11
-10 -16 -10 -6 0 -7 5 -4 10 3 6 11 10 16 10 6 0 7 -4 4 -10z m-115 -24 c0
-11 -19 -15 -25 -6 -3 5 1 10 9 10 9 0 16 -2 16 -4z m110 -6 c0 -5 -2 -10 -4
-10 -3 0 -8 5 -11 10 -3 6 -1 10 4 10 6 0 11 -4 11 -10z m-61 -23 c15 10 20 9
24 -1 7 -18 -1 -26 -25 -26 -11 0 -17 -4 -14 -9 3 -4 0 -16 -7 -26 -12 -16
-15 -15 -31 10 -17 25 -17 28 0 46 13 15 19 16 25 7 7 -10 13 -10 28 -1z
m-265 -76 c-21 -42 -47 -32 -32 12 6 18 16 38 21 45 19 24 28 -23 11 -57z
m-60 17 c-9 -31 -11 -33 -30 -17 -14 12 -14 14 2 26 26 19 36 16 28 -9z m166
12 c0 -5 -7 -10 -15 -10 -8 0 -15 -5 -15 -11 0 -5 -4 -8 -9 -4 -5 3 -16 -4
-24 -16 -8 -11 -17 -16 -21 -11 -9 15 45 58 77 61 4 1 7 -3 7 -9z m0 -45 c-8
-10 -7 -13 6 -11 9 0 19 -6 22 -14 3 -8 1 -12 -3 -7 -5 4 -18 -2 -30 -13 -20
-19 -23 -20 -29 -4 -9 23 2 54 20 54 9 0 12 5 8 12 -4 7 -3 8 5 4 9 -6 9 -11
1 -21z m89 -11 c-15 -18 -22 -13 -13 10 3 9 10 13 16 10 5 -3 4 -12 -3 -20z"/>
<path d="M891 1081 c-9 -6 -6 -8 13 -8 14 0 23 3 20 8 -7 11 -15 11 -33 0z"/>
<path d="M960 890 c-9 -6 -10 -10 -3 -10 6 0 15 5 18 10 8 12 4 12 -15 0z"/>
<path d="M573 1343 c9 -2 25 -2 35 0 9 3 1 5 -18 5 -19 0 -27 -2 -17 -5z"/>
<path d="M217 1333 c-12 -12 -7 -41 7 -46 19 -7 40 18 32 38 -6 15 -28 20 -39
8z"/>
<path d="M900 1315 c-22 -27 12 -49 38 -23 8 8 9 15 1 25 -15 17 -24 16 -39
-2z"/>
<path d="M178 1229 c-29 -17 -22 -39 12 -39 34 0 52 26 29 41 -17 11 -20 11
-41 -2z"/>
<path d="M924 1195 c-4 -9 -2 -21 4 -27 15 -15 44 -1 40 19 -4 23 -36 29 -44
8z"/>
<path d="M190 1056 c0 -9 5 -16 10 -16 6 0 10 -6 10 -12 0 -7 5 -20 10 -28 9
-13 11 -13 20 0 16 24 12 35 -20 53 -26 16 -30 16 -30 3z"/>
<path d="M356 1028 c-3 -13 -6 -45 -5 -73 0 -42 2 -46 10 -26 7 18 14 22 32
16 12 -4 31 -8 43 -9 21 -1 29 -26 12 -37 -6 -4 10 -6 34 -6 23 0 36 2 28 5
-17 6 -50 41 -50 54 0 4 -4 7 -9 6 -15 -5 -83 63 -77 78 3 8 2 14 -3 14 -5 0
-11 -10 -15 -22z m48 -54 c3 -8 2 -12 -4 -9 -6 3 -10 10 -10 16 0 14 7 11 14
-7z"/>
<path d="M243 978 c-22 -46 -23 -58 -3 -68 18 -10 20 -7 20 20 0 17 5 40 10
51 8 14 7 19 -3 19 -7 0 -18 -10 -24 -22z"/>
<path d="M1087 953 c-8 -8 -9 -53 -2 -53 14 0 46 40 40 49 -7 12 -28 15 -38 4z"/>
<path d="M522 923 c4 -20 48 -31 48 -13 0 6 -4 8 -10 5 -5 -3 -10 1 -10 9 0 9
-7 16 -16 16 -9 0 -14 -7 -12 -17z"/>
<path d="M290 890 c-8 -5 -34 -10 -57 -10 -44 0 -53 -9 -29 -29 10 -9 15 -8
20 4 7 19 36 20 36 1 0 -7 -10 -16 -21 -19 l-22 -6 21 -33 c12 -18 26 -34 33
-37 6 -2 9 1 5 7 -4 6 3 16 14 22 11 6 20 18 20 27 0 8 9 31 21 49 l21 34 -24
0 c-13 0 -30 -5 -38 -10z"/>
<path d="M480 876 c0 -2 9 -6 20 -9 11 -3 18 -1 14 4 -5 9 -34 13 -34 5z"/>
<path d="M306 760 c-17 -6 -17 -8 10 -27 28 -19 115 -44 152 -42 26 1 -49 27
-81 28 -16 1 -26 5 -23 10 9 14 -37 39 -58 31z"/>
<path d="M471 643 c-12 -24 1 -46 25 -41 13 2 19 12 19 28 0 30 -30 39 -44 13z"/>
<path d="M377 614 c-4 -4 -7 -16 -7 -26 0 -14 6 -19 23 -16 14 2 22 10 22 23
0 20 -25 32 -38 19z"/>
<path d="M1232 579 c2 -15 10 -23 26 -24 32 -2 26 39 -6 43 -20 3 -23 0 -20
-19z"/>
<path d="M1382 488 c-7 -7 -12 -21 -11 -32 0 -12 3 -15 6 -8 2 6 14 12 25 12
13 0 18 6 16 17 -4 21 -21 26 -36 11z"/>
<path d="M1243 439 c-16 -16 2 -40 23 -32 10 4 14 -4 14 -30 0 -42 12 -53 34
-31 21 20 20 33 -1 42 -11 4 -18 18 -18 32 0 28 -32 39 -52 19z"/>
<path d="M1363 365 c-7 -21 8 -69 22 -67 15 3 12 75 -2 79 -7 3 -16 -3 -20
-12z"/>
<path d="M1434 315 c-7 -18 0 -28 22 -31 10 -2 14 4 12 19 -4 26 -26 34 -34
12z"/>
</g>
</svg>
